<svg xmlns="http://www.w3.org/2000/svg" viewBox="0 0 400 300">
  <defs>
    <linearGradient id="controller" x1="0%" y1="0%" x2="100%" y2="100%">
      <stop offset="0%" stop-color="#a78bfa" stop-opacity="0.35"/>
      <stop offset="100%" stop-color="#f472b6" stop-opacity="0.25"/>
    </linearGradient>
    <linearGradient id="controller-line" x1="0%" y1="0%" x2="100%" y2="100%">
      <stop offset="0%" stop-color="#a78bfa"/>
      <stop offset="100%" stop-color="#f472b6"/>
    </linearGradient>
  </defs>
  <rect width="400" height="300" rx="18" fill="#150f2b"/>
  <rect width="400" height="300" rx="18" fill="url(#controller)"/>
  <rect x="1" y="1" width="398" height="298" rx="17" fill="none" stroke="#2a2150" stroke-width="2"/>
  
  <g transform="translate(200,150)">
    <path d="M-65,-5 q0,-30 30,-30 h70 q30,0 30,30 v10 q0,35 -22,35 q-14,0 -18,-15 h-50 q-4,15 -18,15 q-22,0 -22,-35 Z"
          fill="none" stroke="url(#controller-line)" stroke-width="7" stroke-linejoin="round"/>
    <line x1="-40" y1="-8" x2="-40" y2="8" stroke="#a78bfa" stroke-width="5"/>
    <line x1="-50" y1="2" x2="-30" y2="2" stroke="#a78bfa" stroke-width="5"/>
    <circle cx="42" cy="-6" r="5" fill="#f472b6"/>
    <circle cx="56" cy="6" r="5" fill="#f472b6"/>
  </g>
  <text x="200.0" y="278" text-anchor="middle" font-family="Rajdhani, Arial, sans-serif"
        font-size="22" font-weight="700" fill="#f4f2ff" opacity="0.92">Control DualSense Extra</text>
</svg>