<svg xmlns="http://www.w3.org/2000/svg" viewBox="0 0 400 300">
  <defs>
    <linearGradient id="torneo" x1="0%" y1="0%" x2="100%" y2="100%">
      <stop offset="0%" stop-color="#facc15" stop-opacity="0.35"/>
      <stop offset="100%" stop-color="#fb923c" stop-opacity="0.25"/>
    </linearGradient>
    <linearGradient id="torneo-line" x1="0%" y1="0%" x2="100%" y2="100%">
      <stop offset="0%" stop-color="#facc15"/>
      <stop offset="100%" stop-color="#fb923c"/>
    </linearGradient>
  </defs>
  <rect width="400" height="300" rx="18" fill="#150f2b"/>
  <rect width="400" height="300" rx="18" fill="url(#torneo)"/>
  <rect x="1" y="1" width="398" height="298" rx="17" fill="none" stroke="#2a2150" stroke-width="2"/>
  
  <g transform="translate(200,150)">
    <path d="M-30,-40 h60 v20 a30,30 0 0 1 -60,0 Z" fill="none" stroke="url(#torneo-line)" stroke-width="7" stroke-linejoin="round"/>
    <path d="M-30,-30 h-16 a16,16 0 0 0 16,26" fill="none" stroke="#facc15" stroke-width="5"/>
    <path d="M30,-30 h16 a16,16 0 0 1 -16,26" fill="none" stroke="#facc15" stroke-width="5"/>
    <line x1="0" y1="10" x2="0" y2="34" stroke="#fb923c" stroke-width="6"/>
    <line x1="-24" y1="45" x2="24" y2="45" stroke="#fb923c" stroke-width="6"/>
  </g>
  <text x="200.0" y="278" text-anchor="middle" font-family="Rajdhani, Arial, sans-serif"
        font-size="19" font-weight="700" fill="#f4f2ff" opacity="0.92">Torneos esports mensuales</text>
</svg>